<mxfile host="app.diagrams.net" agent="Mozilla/5.0 (Macintosh; Intel Mac OS X 10_15_7) AppleWebKit/537.36 (KHTML, like Gecko) Chrome/134.0.0.0 Safari/537.36" version="26.1.3">
  <diagram name="Page-1" id="g65T7PWDYA5u-ebIoSR0">
    <mxGraphModel dx="942" dy="690" grid="1" gridSize="10" guides="1" tooltips="1" connect="1" arrows="1" fold="1" page="1" pageScale="1" pageWidth="850" pageHeight="1100" math="0" shadow="0">
      <root>
        <mxCell id="0" />
        <mxCell id="1" parent="0" />
        <mxCell id="Zmm7YAswVX_02gOnRgEl-35" style="rounded=0;orthogonalLoop=1;jettySize=auto;html=1;exitX=0.5;exitY=1;exitDx=0;exitDy=0;entryX=0.5;entryY=0;entryDx=0;entryDy=0;endArrow=none;startFill=0;" parent="1" source="Zmm7YAswVX_02gOnRgEl-1" target="Zmm7YAswVX_02gOnRgEl-2" edge="1">
          <mxGeometry relative="1" as="geometry" />
        </mxCell>
        <mxCell id="Zmm7YAswVX_02gOnRgEl-1" value="SalesPerson" style="whiteSpace=wrap;html=1;align=center;" parent="1" vertex="1">
          <mxGeometry x="170" y="160" width="100" height="40" as="geometry" />
        </mxCell>
        <mxCell id="Zmm7YAswVX_02gOnRgEl-37" style="rounded=0;orthogonalLoop=1;jettySize=auto;html=1;exitX=1;exitY=0.5;exitDx=0;exitDy=0;entryX=0;entryY=0.5;entryDx=0;entryDy=0;endArrow=none;startFill=0;" parent="1" source="Zmm7YAswVX_02gOnRgEl-2" edge="1">
          <mxGeometry relative="1" as="geometry">
            <mxPoint x="510" y="400" as="targetPoint" />
          </mxGeometry>
        </mxCell>
        <mxCell id="Zmm7YAswVX_02gOnRgEl-2" value="Trip" style="whiteSpace=wrap;html=1;align=center;" parent="1" vertex="1">
          <mxGeometry x="170" y="380" width="100" height="40" as="geometry" />
        </mxCell>
        <mxCell id="Zmm7YAswVX_02gOnRgEl-39" style="rounded=0;orthogonalLoop=1;jettySize=auto;html=1;exitX=0.5;exitY=0;exitDx=0;exitDy=0;entryX=0.5;entryY=1;entryDx=0;entryDy=0;endArrow=none;startFill=0;" parent="1" target="Zmm7YAswVX_02gOnRgEl-4" edge="1">
          <mxGeometry relative="1" as="geometry">
            <mxPoint x="560" y="380" as="sourcePoint" />
          </mxGeometry>
        </mxCell>
        <mxCell id="Zmm7YAswVX_02gOnRgEl-4" value="Account" style="whiteSpace=wrap;html=1;align=center;" parent="1" vertex="1">
          <mxGeometry x="510" y="145" width="100" height="40" as="geometry" />
        </mxCell>
        <mxCell id="Zmm7YAswVX_02gOnRgEl-18" style="rounded=0;orthogonalLoop=1;jettySize=auto;html=1;exitX=0.5;exitY=1;exitDx=0;exitDy=0;entryX=0.25;entryY=0;entryDx=0;entryDy=0;endArrow=none;startFill=0;" parent="1" source="Zmm7YAswVX_02gOnRgEl-5" target="Zmm7YAswVX_02gOnRgEl-1" edge="1">
          <mxGeometry relative="1" as="geometry" />
        </mxCell>
        <mxCell id="Zmm7YAswVX_02gOnRgEl-5" value="SSN" style="ellipse;whiteSpace=wrap;html=1;align=center;fontStyle=4;" parent="1" vertex="1">
          <mxGeometry x="40" y="100" width="100" height="40" as="geometry" />
        </mxCell>
        <mxCell id="Zmm7YAswVX_02gOnRgEl-20" style="rounded=0;orthogonalLoop=1;jettySize=auto;html=1;exitX=0;exitY=0.5;exitDx=0;exitDy=0;entryX=0.5;entryY=0;entryDx=0;entryDy=0;endArrow=none;startFill=0;" parent="1" source="Zmm7YAswVX_02gOnRgEl-6" target="Zmm7YAswVX_02gOnRgEl-1" edge="1">
          <mxGeometry relative="1" as="geometry" />
        </mxCell>
        <mxCell id="Zmm7YAswVX_02gOnRgEl-6" value="Name" style="ellipse;whiteSpace=wrap;html=1;align=center;" parent="1" vertex="1">
          <mxGeometry x="250" y="100" width="100" height="40" as="geometry" />
        </mxCell>
        <mxCell id="Zmm7YAswVX_02gOnRgEl-19" style="rounded=0;orthogonalLoop=1;jettySize=auto;html=1;exitX=0.5;exitY=0;exitDx=0;exitDy=0;entryX=0;entryY=0.5;entryDx=0;entryDy=0;endArrow=none;startFill=0;" parent="1" source="Zmm7YAswVX_02gOnRgEl-7" target="Zmm7YAswVX_02gOnRgEl-1" edge="1">
          <mxGeometry relative="1" as="geometry" />
        </mxCell>
        <mxCell id="Zmm7YAswVX_02gOnRgEl-7" value="Start_year" style="ellipse;whiteSpace=wrap;html=1;align=center;" parent="1" vertex="1">
          <mxGeometry x="20" y="170" width="100" height="40" as="geometry" />
        </mxCell>
        <mxCell id="Zmm7YAswVX_02gOnRgEl-8" value="Dept_no" style="ellipse;whiteSpace=wrap;html=1;align=center;" parent="1" vertex="1">
          <mxGeometry x="150" y="60" width="100" height="40" as="geometry" />
        </mxCell>
        <mxCell id="Zmm7YAswVX_02gOnRgEl-30" style="rounded=0;orthogonalLoop=1;jettySize=auto;html=1;exitX=0;exitY=0;exitDx=0;exitDy=0;entryX=0.75;entryY=1;entryDx=0;entryDy=0;endArrow=none;startFill=0;" parent="1" source="Zmm7YAswVX_02gOnRgEl-9" target="Zmm7YAswVX_02gOnRgEl-2" edge="1">
          <mxGeometry relative="1" as="geometry" />
        </mxCell>
        <mxCell id="Zmm7YAswVX_02gOnRgEl-9" value="Trip_id" style="ellipse;whiteSpace=wrap;html=1;align=center;fontStyle=4;" parent="1" vertex="1">
          <mxGeometry x="280" y="450" width="100" height="40" as="geometry" />
        </mxCell>
        <mxCell id="Zmm7YAswVX_02gOnRgEl-28" style="rounded=0;orthogonalLoop=1;jettySize=auto;html=1;exitX=0.5;exitY=0;exitDx=0;exitDy=0;entryX=0;entryY=1;entryDx=0;entryDy=0;endArrow=none;startFill=0;" parent="1" source="Zmm7YAswVX_02gOnRgEl-10" target="Zmm7YAswVX_02gOnRgEl-2" edge="1">
          <mxGeometry relative="1" as="geometry" />
        </mxCell>
        <mxCell id="Zmm7YAswVX_02gOnRgEl-10" value="Departure_date" style="ellipse;whiteSpace=wrap;html=1;align=center;" parent="1" vertex="1">
          <mxGeometry x="80" y="490" width="100" height="40" as="geometry" />
        </mxCell>
        <mxCell id="Zmm7YAswVX_02gOnRgEl-25" style="rounded=0;orthogonalLoop=1;jettySize=auto;html=1;exitX=1;exitY=0.5;exitDx=0;exitDy=0;entryX=0.25;entryY=0;entryDx=0;entryDy=0;endArrow=none;startFill=0;" parent="1" source="Zmm7YAswVX_02gOnRgEl-11" target="Zmm7YAswVX_02gOnRgEl-2" edge="1">
          <mxGeometry relative="1" as="geometry" />
        </mxCell>
        <mxCell id="Zmm7YAswVX_02gOnRgEl-11" value="Return_date" style="ellipse;whiteSpace=wrap;html=1;align=center;" parent="1" vertex="1">
          <mxGeometry x="20" y="340" width="100" height="40" as="geometry" />
        </mxCell>
        <mxCell id="Zmm7YAswVX_02gOnRgEl-29" style="rounded=0;orthogonalLoop=1;jettySize=auto;html=1;exitX=0.5;exitY=0;exitDx=0;exitDy=0;entryX=0.25;entryY=1;entryDx=0;entryDy=0;endArrow=none;startFill=0;" parent="1" source="Zmm7YAswVX_02gOnRgEl-12" target="Zmm7YAswVX_02gOnRgEl-2" edge="1">
          <mxGeometry relative="1" as="geometry" />
        </mxCell>
        <mxCell id="Zmm7YAswVX_02gOnRgEl-12" value="Departure_city" style="ellipse;whiteSpace=wrap;html=1;align=center;" parent="1" vertex="1">
          <mxGeometry x="190" y="510" width="100" height="40" as="geometry" />
        </mxCell>
        <mxCell id="Zmm7YAswVX_02gOnRgEl-26" style="rounded=0;orthogonalLoop=1;jettySize=auto;html=1;exitX=1;exitY=0;exitDx=0;exitDy=0;entryX=0;entryY=0.25;entryDx=0;entryDy=0;endArrow=none;startFill=0;" parent="1" source="Zmm7YAswVX_02gOnRgEl-13" target="Zmm7YAswVX_02gOnRgEl-2" edge="1">
          <mxGeometry relative="1" as="geometry" />
        </mxCell>
        <mxCell id="Zmm7YAswVX_02gOnRgEl-13" value="Arrival_city" style="ellipse;whiteSpace=wrap;html=1;align=center;" parent="1" vertex="1">
          <mxGeometry x="30" y="420" width="100" height="40" as="geometry" />
        </mxCell>
        <mxCell id="Zmm7YAswVX_02gOnRgEl-32" style="rounded=0;orthogonalLoop=1;jettySize=auto;html=1;exitX=0;exitY=0;exitDx=0;exitDy=0;entryX=0.75;entryY=1;entryDx=0;entryDy=0;endArrow=none;startFill=0;" parent="1" source="Zmm7YAswVX_02gOnRgEl-14" edge="1">
          <mxGeometry relative="1" as="geometry">
            <mxPoint x="585" y="420" as="targetPoint" />
          </mxGeometry>
        </mxCell>
        <mxCell id="Zmm7YAswVX_02gOnRgEl-14" value="Amount" style="ellipse;whiteSpace=wrap;html=1;align=center;" parent="1" vertex="1">
          <mxGeometry x="640" y="440" width="100" height="40" as="geometry" />
        </mxCell>
        <mxCell id="Zmm7YAswVX_02gOnRgEl-33" style="rounded=0;orthogonalLoop=1;jettySize=auto;html=1;exitX=0;exitY=1;exitDx=0;exitDy=0;endArrow=none;startFill=0;" parent="1" source="Zmm7YAswVX_02gOnRgEl-15" edge="1">
          <mxGeometry relative="1" as="geometry">
            <mxPoint x="610" y="386.33950181697105" as="targetPoint" />
          </mxGeometry>
        </mxCell>
        <mxCell id="Zmm7YAswVX_02gOnRgEl-15" value="Expense_id" style="ellipse;whiteSpace=wrap;html=1;align=center;fontStyle=4;" parent="1" vertex="1">
          <mxGeometry x="640" y="340" width="100" height="40" as="geometry" />
        </mxCell>
        <mxCell id="Zmm7YAswVX_02gOnRgEl-31" style="rounded=0;orthogonalLoop=1;jettySize=auto;html=1;exitX=0.5;exitY=0;exitDx=0;exitDy=0;entryX=0.25;entryY=1;entryDx=0;entryDy=0;endArrow=none;startFill=0;" parent="1" edge="1">
          <mxGeometry relative="1" as="geometry">
            <mxPoint x="540" y="460" as="sourcePoint" />
            <mxPoint x="535" y="420" as="targetPoint" />
          </mxGeometry>
        </mxCell>
        <mxCell id="Zmm7YAswVX_02gOnRgEl-23" style="rounded=0;orthogonalLoop=1;jettySize=auto;html=1;exitX=0.5;exitY=1;exitDx=0;exitDy=0;entryX=0.75;entryY=0;entryDx=0;entryDy=0;endArrow=none;startFill=0;" parent="1" source="Zmm7YAswVX_02gOnRgEl-17" target="Zmm7YAswVX_02gOnRgEl-4" edge="1">
          <mxGeometry relative="1" as="geometry" />
        </mxCell>
        <mxCell id="Zmm7YAswVX_02gOnRgEl-17" value="Account_num" style="ellipse;whiteSpace=wrap;html=1;align=center;fontStyle=4;" parent="1" vertex="1">
          <mxGeometry x="570" y="75" width="100" height="40" as="geometry" />
        </mxCell>
        <mxCell id="Zmm7YAswVX_02gOnRgEl-22" style="rounded=0;orthogonalLoop=1;jettySize=auto;html=1;exitX=0.5;exitY=1;exitDx=0;exitDy=0;entryX=0.389;entryY=0.061;entryDx=0;entryDy=0;entryPerimeter=0;endArrow=none;startFill=0;" parent="1" source="Zmm7YAswVX_02gOnRgEl-8" target="Zmm7YAswVX_02gOnRgEl-1" edge="1">
          <mxGeometry relative="1" as="geometry" />
        </mxCell>
        <mxCell id="Zmm7YAswVX_02gOnRgEl-36" value="(0:N)" style="text;strokeColor=none;fillColor=none;spacingLeft=4;spacingRight=4;overflow=hidden;rotatable=0;points=[[0,0.5],[1,0.5]];portConstraint=eastwest;fontSize=12;whiteSpace=wrap;html=1;" parent="1" vertex="1">
          <mxGeometry x="180" y="200" width="40" height="30" as="geometry" />
        </mxCell>
        <mxCell id="Zmm7YAswVX_02gOnRgEl-40" value="(1:N)" style="text;strokeColor=none;fillColor=none;spacingLeft=4;spacingRight=4;overflow=hidden;rotatable=0;points=[[0,0.5],[1,0.5]];portConstraint=eastwest;fontSize=12;whiteSpace=wrap;html=1;" parent="1" vertex="1">
          <mxGeometry x="520" y="350" width="40" height="30" as="geometry" />
        </mxCell>
        <mxCell id="wQxGaNYslig7KNLgKtw8-1" value="Makes" style="shape=rhombus;perimeter=rhombusPerimeter;whiteSpace=wrap;html=1;align=center;" parent="1" vertex="1">
          <mxGeometry x="160" y="255" width="120" height="60" as="geometry" />
        </mxCell>
        <mxCell id="wQxGaNYslig7KNLgKtw8-2" value="Charged" style="shape=rhombus;perimeter=rhombusPerimeter;whiteSpace=wrap;html=1;align=center;" parent="1" vertex="1">
          <mxGeometry x="500" y="250" width="120" height="60" as="geometry" />
        </mxCell>
        <mxCell id="wQxGaNYslig7KNLgKtw8-4" value="1" style="text;strokeColor=none;fillColor=none;spacingLeft=4;spacingRight=4;overflow=hidden;rotatable=0;points=[[0,0.5],[1,0.5]];portConstraint=eastwest;fontSize=12;whiteSpace=wrap;html=1;" parent="1" vertex="1">
          <mxGeometry x="200" y="230" width="40" height="30" as="geometry" />
        </mxCell>
        <mxCell id="wQxGaNYslig7KNLgKtw8-5" value="N" style="text;strokeColor=none;fillColor=none;spacingLeft=4;spacingRight=4;overflow=hidden;rotatable=0;points=[[0,0.5],[1,0.5]];portConstraint=eastwest;fontSize=12;whiteSpace=wrap;html=1;" parent="1" vertex="1">
          <mxGeometry x="200" y="310" width="40" height="30" as="geometry" />
        </mxCell>
        <mxCell id="wQxGaNYslig7KNLgKtw8-6" value="1" style="text;strokeColor=none;fillColor=none;spacingLeft=4;spacingRight=4;overflow=hidden;rotatable=0;points=[[0,0.5],[1,0.5]];portConstraint=eastwest;fontSize=12;whiteSpace=wrap;html=1;" parent="1" vertex="1">
          <mxGeometry x="320" y="375" width="40" height="30" as="geometry" />
        </mxCell>
        <mxCell id="wQxGaNYslig7KNLgKtw8-7" value="N" style="text;strokeColor=none;fillColor=none;spacingLeft=4;spacingRight=4;overflow=hidden;rotatable=0;points=[[0,0.5],[1,0.5]];portConstraint=eastwest;fontSize=12;whiteSpace=wrap;html=1;" parent="1" vertex="1">
          <mxGeometry x="440" y="375" width="40" height="30" as="geometry" />
        </mxCell>
        <mxCell id="wQxGaNYslig7KNLgKtw8-8" value="N" style="text;strokeColor=none;fillColor=none;spacingLeft=4;spacingRight=4;overflow=hidden;rotatable=0;points=[[0,0.5],[1,0.5]];portConstraint=eastwest;fontSize=12;whiteSpace=wrap;html=1;" parent="1" vertex="1">
          <mxGeometry x="540" y="230" width="40" height="30" as="geometry" />
        </mxCell>
        <mxCell id="wQxGaNYslig7KNLgKtw8-9" value="M" style="text;strokeColor=none;fillColor=none;spacingLeft=4;spacingRight=4;overflow=hidden;rotatable=0;points=[[0,0.5],[1,0.5]];portConstraint=eastwest;fontSize=12;whiteSpace=wrap;html=1;" parent="1" vertex="1">
          <mxGeometry x="540" y="310" width="40" height="30" as="geometry" />
        </mxCell>
        <mxCell id="wQxGaNYslig7KNLgKtw8-10" value="&lt;span style=&quot;border-bottom: 1px dotted&quot;&gt;Trip_id&lt;/span&gt;" style="ellipse;whiteSpace=wrap;html=1;align=center;" parent="1" vertex="1">
          <mxGeometry x="490" y="460" width="100" height="40" as="geometry" />
        </mxCell>
        <mxCell id="mHTN9BLEPX0nDTshSC8D-1" value="Incur" style="shape=rhombus;double=1;perimeter=rhombusPerimeter;whiteSpace=wrap;html=1;align=center;" vertex="1" parent="1">
          <mxGeometry x="330" y="370" width="120" height="60" as="geometry" />
        </mxCell>
        <mxCell id="mHTN9BLEPX0nDTshSC8D-2" value="(0:N)" style="text;strokeColor=none;fillColor=none;spacingLeft=4;spacingRight=4;overflow=hidden;rotatable=0;points=[[0,0.5],[1,0.5]];portConstraint=eastwest;fontSize=12;whiteSpace=wrap;html=1;" vertex="1" parent="1">
          <mxGeometry x="560" y="190" width="40" height="30" as="geometry" />
        </mxCell>
        <mxCell id="mHTN9BLEPX0nDTshSC8D-3" value="(0:1)" style="text;strokeColor=none;fillColor=none;spacingLeft=4;spacingRight=4;overflow=hidden;rotatable=0;points=[[0,0.5],[1,0.5]];portConstraint=eastwest;fontSize=12;whiteSpace=wrap;html=1;" vertex="1" parent="1">
          <mxGeometry x="220" y="350" width="40" height="30" as="geometry" />
        </mxCell>
        <mxCell id="mHTN9BLEPX0nDTshSC8D-5" value="(0&lt;span style=&quot;background-color: transparent; color: light-dark(rgb(0, 0, 0), rgb(255, 255, 255));&quot;&gt;:N)&lt;/span&gt;" style="text;strokeColor=none;fillColor=none;spacingLeft=4;spacingRight=4;overflow=hidden;rotatable=0;points=[[0,0.5],[1,0.5]];portConstraint=eastwest;fontSize=12;whiteSpace=wrap;html=1;" vertex="1" parent="1">
          <mxGeometry x="280" y="405" width="40" height="30" as="geometry" />
        </mxCell>
        <mxCell id="mHTN9BLEPX0nDTshSC8D-6" value="(0:1)" style="text;strokeColor=none;fillColor=none;spacingLeft=4;spacingRight=4;overflow=hidden;rotatable=0;points=[[0,0.5],[1,0.5]];portConstraint=eastwest;fontSize=12;whiteSpace=wrap;html=1;" vertex="1" parent="1">
          <mxGeometry x="470" y="400" width="40" height="30" as="geometry" />
        </mxCell>
        <mxCell id="mHTN9BLEPX0nDTshSC8D-7" value="Expense" style="shape=ext;margin=3;double=1;whiteSpace=wrap;html=1;align=center;" vertex="1" parent="1">
          <mxGeometry x="510" y="380" width="100" height="40" as="geometry" />
        </mxCell>
      </root>
    </mxGraphModel>
  </diagram>
</mxfile>
